<?xml version="1.0" encoding="utf-8"?>
<!-- Generator: Adobe Illustrator 24.1.3, SVG Export Plug-In . SVG Version: 6.00 Build 0)  -->
<svg version="1.1" id="Camada_1" xmlns="http://www.w3.org/2000/svg" xmlns:xlink="http://www.w3.org/1999/xlink" x="0px" y="0px"
	 viewBox="0 0 195 195" style="enable-background:new 0 0 195 195;" xml:space="preserve">
<style type="text/css">
	.st0{fill:#FDEAE9;}
	.st1{fill:#FA4043;}
</style>
<g id="BACKGROUND">
</g>
<circle class="st0" cx="97.5" cy="97.5" r="97.5"/>
<g>
	<path class="st1" d="M156.6,31.1h-11.5V19.6c0-1.3-1.1-2.4-2.4-2.4l0,0H66.3c-0.2,0-0.3,0-0.5,0l0,0c-0.2,0-0.4,0.1-0.6,0.2
		c0,0-0.1,0-0.1,0.1c-0.2,0.1-0.4,0.2-0.5,0.4l-28,28c-0.1,0.2-0.3,0.3-0.4,0.5c0,0,0,0.1-0.1,0.1c-0.1,0.2-0.2,0.4-0.2,0.6l0,0
		c0,0.1,0,0.3,0,0.4v113.8c0,1.3,1.1,2.4,2.4,2.4h11.5v11.5c0,1.3,1.1,2.4,2.4,2.4l0,0h104.4c1.3,0,2.4-1.1,2.4-2.4l0,0V33.5
		C159,32.2,157.9,31.1,156.6,31.1L156.6,31.1z M64,25.3v20H44L64,25.3z M40.7,50h25.7c1.3,0,2.4-1.1,2.4-2.4l0,0v-3.7h52.5
		c1.3,0,2.4-1.1,2.4-2.4c0-1.3-1.1-2.4-2.4-2.4H68.7V21.9h71.6V159H40.7V50z M154.2,173H54.6v-9.2h88.2c1.3,0,2.4-1.1,2.4-2.4l0,0
		V35.8h9.2V173H154.2z"/>
	<path class="st1" d="M59.8,76.6h61.4c1.3,0,2.4-1.1,2.4-2.4s-1.1-2.4-2.4-2.4H59.8c-1.3,0-2.4,1.1-2.4,2.4
		C57.5,75.5,58.5,76.6,59.8,76.6z"/>
	<path class="st1" d="M59.8,92.9h61.4c1.3,0,2.4-1.1,2.4-2.4s-1.1-2.4-2.4-2.4H59.8c-1.3,0-2.4,1.1-2.4,2.4
		C57.5,91.8,58.5,92.9,59.8,92.9z"/>
	<path class="st1" d="M59.8,109.2h61.4c1.3,0,2.4-1.1,2.4-2.4s-1.1-2.4-2.4-2.4H59.8c-1.3,0-2.4,1.1-2.4,2.4
		C57.5,108.1,58.5,109.2,59.8,109.2z"/>
	<path class="st1" d="M59.8,125.5h61.4c1.3,0,2.4-1.1,2.4-2.4s-1.1-2.4-2.4-2.4H59.8c-1.3,0-2.4,1.1-2.4,2.4S58.5,125.5,59.8,125.5z
		"/>
	<path class="st1" d="M59.8,141.8h61.4c1.3,0,2.4-1.1,2.4-2.4s-1.1-2.4-2.4-2.4H59.8c-1.3,0-2.4,1.1-2.4,2.4S58.5,141.8,59.8,141.8z
		"/>
	<path class="st1" d="M59.8,60.2h61.4c1.3,0,2.4-1.1,2.4-2.4s-1.1-2.4-2.4-2.4H59.8c-1.3,0-2.4,1.1-2.4,2.4
		C57.5,59.2,58.5,60.2,59.8,60.2z"/>
</g>
<image style="overflow:visible;" width="467" height="201" xlink:href="../../../../../../Desktop/Captura de Tela 2020-06-16 às 15.31.29.png"  transform="matrix(1 0 0 1 -287.4 -320.7)">
</image>
<rect x="-176.2" y="-55.1" class="st1" width="142.3" height="45.2"/>
<rect x="-176.2" y="-9.9" class="st0" width="145.5" height="45.2"/>
</svg>
