<?xml version="1.0" encoding="utf-8"?>
<!-- Generator: Adobe Illustrator 24.1.3, SVG Export Plug-In . SVG Version: 6.00 Build 0)  -->
<svg version="1.1" id="Camada_1" xmlns="http://www.w3.org/2000/svg" xmlns:xlink="http://www.w3.org/1999/xlink" x="0px" y="0px"
	 viewBox="0 0 195.1 195" style="enable-background:new 0 0 195.1 195;" xml:space="preserve">
<style type="text/css">
	.st0{fill:#FDEAE9;}
	.st1{fill:#FA4043;}
</style>
<g id="BACKGROUND">
</g>
<circle class="st0" cx="97.6" cy="97.5" r="97.5"/>
<g>
	<g>
		<g>
			<path class="st1" d="M181.4,88.1l-5-20.2c1.4-0.3,2.4-1.5,2.4-3v-3.3c0-7.1-5.8-12.8-12.8-12.8h-23v-6.7c0-3.5-2.8-6.3-6.3-6.3
				H19.4c-3.5,0-6.3,2.8-6.3,6.3v55.4c0,1.7,1.4,3.1,3.1,3.1c1.7,0,3.1-1.4,3.1-3.1V42.1c0-0.1,0.1-0.2,0.2-0.2h117.2
				c0.1,0,0.2,0.1,0.2,0.2v55.4c0,1.7,1.4,3.1,3.1,3.1c1.7,0,3.1-1.4,3.1-3.1V94h36l0,0l0,0c4.4,0,8.2,2.9,9.5,6.9h-9.5
				c-1.7,0-3.1,1.4-3.1,3.1v6.5c0,5.3,4.3,9.6,9.6,9.6h3.5v13.4h-8c-2.6-7.6-9.8-13-18.3-13s-15.7,5.5-18.3,13H143v-23
				c0-1.7-1.4-3.1-3.1-3.1c-1.7,0-3.1,1.4-3.1,3.1v23H73.5c-2.6-7.6-9.8-13-18.3-13s-15.7,5.5-18.3,13H19.4c-0.1,0-0.2-0.1-0.2-0.2
				v-6.7h13.2c1.7,0,3.1-1.4,3.1-3.1s-1.4-3.1-3.1-3.1H3.1c-1.7,0-3.1,1.4-3.1,3.1s1.4,3.1,3.1,3.1h10v6.7c0,3.5,2.8,6.3,6.3,6.3
				h16.5c0,0.1,0,0.1,0,0.2c0,10.7,8.7,19.3,19.3,19.3s19.3-8.7,19.3-19.3c0-0.1,0-0.1,0-0.2h68.8c0,0.1,0,0.1,0,0.2
				c0,10.7,8.7,19.3,19.3,19.3c10.7,0,19.3-8.7,19.3-19.3c0-0.1,0-0.1,0-0.2h10c1.7,0,3.1-1.4,3.1-3.1v-32.6
				C195.1,95.9,189.1,89.2,181.4,88.1z M143,54.9h23c3.7,0,6.7,3,6.7,6.7v0.2H143V54.9z M143,87.9v-20h27.1l5,19.9L143,87.9
				L143,87.9z M55.2,153c-7.3,0-13.2-5.9-13.2-13.2s5.9-13.2,13.2-13.2s13.2,5.9,13.2,13.2C68.5,147.1,62.5,153,55.2,153z
				 M162.7,153c-7.3,0-13.2-5.9-13.2-13.2s5.9-13.2,13.2-13.2s13.2,5.9,13.2,13.2S170,153,162.7,153z M188.9,113.9h-3.5
				c-1.9,0-3.5-1.6-3.5-3.5v-3.5h6.9L188.9,113.9L188.9,113.9z"/>
		</g>
	</g>
	<g>
		<g>
			<path class="st1" d="M55.2,133.5c-3.5,0-6.3,2.8-6.3,6.3s2.8,6.3,6.3,6.3s6.3-2.8,6.3-6.3S58.7,133.5,55.2,133.5z"/>
		</g>
	</g>
	<g>
		<g>
			<path class="st1" d="M162.7,133.5c-3.5,0-6.3,2.8-6.3,6.3s2.8,6.3,6.3,6.3s6.3-2.8,6.3-6.3S166.2,133.5,162.7,133.5z"/>
		</g>
	</g>
	<g>
		<g>
			<path class="st1" d="M126.9,120.5H81.3c-1.7,0-3.1,1.4-3.1,3.1c0,1.7,1.4,3.1,3.1,3.1h45.6c1.7,0,3.1-1.4,3.1-3.1
				C129.9,121.8,128.6,120.5,126.9,120.5z"/>
		</g>
	</g>
	<g>
		<g>
			<path class="st1" d="M48.7,107.4H9.6c-1.7,0-3.1,1.4-3.1,3.1s1.4,3.1,3.1,3.1h39.1c1.7,0,3.1-1.4,3.1-3.1
				C51.8,108.8,50.4,107.4,48.7,107.4z"/>
		</g>
	</g>
	<g>
		<g>
			<path class="st1" d="M106.2,66c-1.2-1.2-3.1-1.2-4.3,0L74.8,93.1L60.6,79c-1.2-1.2-3.1-1.2-4.3,0c-1.2,1.2-1.2,3.1,0,4.3
				l16.3,16.3c0.6,0.6,1.4,0.9,2.2,0.9c0.8,0,1.6-0.3,2.2-0.9l29.2-29.3C107.4,69.1,107.4,67.2,106.2,66z"/>
		</g>
	</g>
</g>
<rect x="-326.6" y="-22.5" class="st1" width="142.3" height="45.2"/>
<rect x="-326.6" y="22.7" class="st0" width="145.5" height="45.2"/>
</svg>
