<?xml version="1.0" encoding="utf-8"?>
<!-- Generator: Adobe Illustrator 24.1.3, SVG Export Plug-In . SVG Version: 6.00 Build 0)  -->
<svg version="1.1" id="Camada_1" xmlns="http://www.w3.org/2000/svg" xmlns:xlink="http://www.w3.org/1999/xlink" x="0px" y="0px"
	 viewBox="0 0 194.6 197" style="enable-background:new 0 0 194.6 197;" xml:space="preserve">
<style type="text/css">
	.st0{fill:#FDEAE9;}
	.st1{fill:#FA4043;}
</style>
<g id="BACKGROUND">
</g>
<circle class="st0" cx="97.1" cy="99.5" r="97.5"/>
<g>
	<g>
		<g>
			<path class="st1" d="M97,19.4c-25.4,0-46,20.6-46,46c0,10.5,3.7,20.8,10.3,29c0,0.1,0.1,0.2,0.2,0.2L94.6,137
				c0.6,0.8,1.5,1.2,2.5,1.2s1.9-0.4,2.5-1.2l33.3-42.6l0,0c6.6-8.2,10.3-18.4,10.3-29C143,40,122.4,19.4,97,19.4z M127.9,90.5
				l-0.1,0.1L97.1,130L66.7,91c-0.1-0.1-0.2-0.2-0.3-0.4c-5.9-7.1-9.1-16.1-9.1-25.3c0-21.9,17.8-39.8,39.8-39.8
				s39.8,17.8,39.8,39.8C136.8,74.5,133.6,83.4,127.9,90.5z"/>
		</g>
	</g>
	<g>
		<g>
			<path class="st1" d="M124,58.1c-0.5-1.7-2.2-2.6-3.9-2.1s-2.6,2.2-2.1,3.9c2.3,7.7,0.2,16-5.5,21.7c-4.1,4.1-9.6,6.4-15.5,6.4
				c-5.8,0-11.3-2.3-15.5-6.4c-4.1-4.1-6.4-9.6-6.4-15.5s2.3-11.3,6.4-15.5c5.7-5.7,14-7.8,21.7-5.5c1.7,0.5,3.4-0.5,3.9-2.1
				c0.5-1.7-0.5-3.4-2.1-3.9c-9.9-2.9-20.6-0.2-27.9,7.1c-5.3,5.3-8.2,12.4-8.2,19.9s2.9,14.6,8.2,19.9c5.3,5.3,12.4,8.2,19.9,8.2
				s14.6-2.9,19.9-8.2C124.2,78.7,126.9,68,124,58.1z"/>
		</g>
	</g>
	<g>
		<g>
			<path class="st1" d="M117,46.2L117,46.2c-1.3-1.3-3.3-1.3-4.5-0.1c-1.2,1.2-1.2,3.2,0,4.4l0.1,0.1c0.6,0.6,1.4,0.9,2.2,0.9
				s1.6-0.3,2.2-0.9C118.2,49.4,118.2,47.4,117,46.2z"/>
		</g>
	</g>
	<g>
		<g>
			<path class="st1" d="M145.1,114.9c-1.6-0.5-3.4,0.4-3.9,2s0.4,3.4,2,3.9c17.4,5.7,27.7,14.3,27.7,22.9c0,7.3-7.5,14.7-20.6,20.2
				c-14.2,6-33,9.3-53.2,9.3s-39-3.3-53.2-9.3c-13.1-5.6-20.6-12.9-20.6-20.2c0-6.1,5.3-12.3,14.8-17.5c10.1-5.4,24.4-9.4,40.3-11.1
				c1.7-0.2,3-1.7,2.8-3.4s-1.7-3-3.4-2.8c-16.7,1.8-31.8,6-42.6,11.8c-11.9,6.4-18.1,14.3-18.1,23c0,10.1,8.7,19.3,24.4,26
				c14.9,6.3,34.7,9.8,55.6,9.8s40.7-3.5,55.6-9.8c15.8-6.7,24.4-15.9,24.4-26C177.1,132.1,165.5,121.6,145.1,114.9z"/>
		</g>
	</g>
	<g>
		<g>
			<path class="st1" d="M130.8,111.1h-0.1c-1.7-0.3-3.3,0.8-3.7,2.4c-0.3,1.7,0.8,3.3,2.4,3.7h0.1c0.2,0,0.4,0.1,0.6,0.1
				c1.5,0,2.8-1,3.1-2.5C133.6,113.1,132.5,111.5,130.8,111.1z"/>
		</g>
	</g>
	<g>
		<g>
			<path class="st1" d="M73.4,124.8c-0.3-1.7-2-2.8-3.7-2.5c-0.1,0-0.1,0-0.2,0.1c-1.7,0.5-2.6,2.2-2.2,3.8c0.4,1.4,1.6,2.3,3,2.3
				c0.2,0,0.5,0,0.7-0.1C72.7,128.1,73.7,126.4,73.4,124.8z"/>
		</g>
	</g>
	<g>
		<g>
			<path class="st1" d="M107.5,119.7c-1.7-0.1-3.2,1.2-3.4,2.9s1.2,3.2,2.9,3.4c20.4,1.6,31.3,7.6,31.3,11.3c0,1.8-2.8,4.8-10.9,7.5
				c-8.1,2.7-18.9,4.2-30.4,4.2s-22.3-1.5-30.4-4.2c-8-2.7-10.9-5.7-10.9-7.5c0-1.6,2.2-3.7,5.9-5.5c1.6-0.8,2.2-2.6,1.4-4.2
				c-0.8-1.6-2.6-2.2-4.2-1.4c-7.8,3.8-9.4,8.1-9.4,11.1c0,11.8,23.9,17.9,47.5,17.9s47.5-6.2,47.5-17.9
				C144.6,126.4,124.6,121,107.5,119.7z"/>
		</g>
	</g>
</g>
<rect x="-421.2" y="-193.7" class="st1" width="142.3" height="45.2"/>
<rect x="-421.2" y="-148.5" class="st0" width="145.5" height="45.2"/>
</svg>
