<?xml version="1.0" encoding="utf-8"?>
<!-- Generator: Adobe Illustrator 24.1.3, SVG Export Plug-In . SVG Version: 6.00 Build 0)  -->
<svg version="1.1" id="Camada_1" xmlns="http://www.w3.org/2000/svg" xmlns:xlink="http://www.w3.org/1999/xlink" x="0px" y="0px"
	 viewBox="0 0 195 195" style="enable-background:new 0 0 195 195;" xml:space="preserve">
<style type="text/css">
	.st0{fill:#FDEAE9;}
	.st1{fill:#FA4043;}
</style>
<g id="BACKGROUND">
</g>
<circle class="st0" cx="97.5" cy="97.5" r="97.5"/>
<g>
	<path class="st1" d="M183.2,48.5v97.9c0,7.9-6.4,14.3-14.3,14.3h-143c-7.9,0-14.3-6.4-14.3-14.3v-42.9c0-1.6,1.3-2.9,2.9-2.9
		c1.6,0,2.9,1.3,2.9,2.9v42.9c0,4.7,3.8,8.6,8.6,8.6h143c4.7,0,8.6-3.8,8.6-8.6V48.5c0-4.7-3.8-8.6-8.6-8.6H26
		c-4.7,0-8.6,3.8-8.6,8.6v11.4h146.5c1.6,0,2.9,1.3,2.9,2.9s-1.3,2.9-2.9,2.9H17.4v18.6h146.5c1.6,0,2.9,1.3,2.9,2.9
		s-1.3,2.9-2.9,2.9H14.6c-1.6,0-2.9-1.3-2.9-2.9V48.5c0-7.9,6.4-14.3,14.3-14.3h143C176.8,34.2,183.2,40.6,183.2,48.5z M160.4,122.8
		c0-7.3-8.2-11.8-14.3-7.8c6.1,9.9-1.1,22.8-12.8,22.8c-8.3,0-15-6.7-15-15c0-12.3,14.1-19.4,23.9-12.1c9.9-7.3,23.9-0.2,23.9,12.1
		c0,8.3-6.7,15-15,15c-1.6,0-2.9-1.3-2.9-2.9c0-1.6,1.3-2.9,2.9-2.9C156.2,132.1,160.4,127.9,160.4,122.8z M142.5,122.8
		c0-5.1-4.2-9.3-9.3-9.3s-9.3,4.2-9.3,9.3s4.2,9.3,9.3,9.3S142.5,127.9,142.5,122.8z M37.8,116.7h23.9c1.6,0,2.9-1.3,2.9-2.9
		s-1.3-2.9-2.9-2.9H37.8c-1.6,0-2.9,1.3-2.9,2.9S36.2,116.7,37.8,116.7z M37.8,134.6h23.9c1.6,0,2.9-1.3,2.9-2.9s-1.3-2.9-2.9-2.9
		H37.8c-1.6,0-2.9,1.3-2.9,2.9S36.2,134.6,37.8,134.6z"/>
</g>
<rect x="-533.7" y="71.5" class="st1" width="142.3" height="45.2"/>
<rect x="-533.7" y="116.7" class="st0" width="145.5" height="45.2"/>
</svg>
