<?xml version="1.0" encoding="utf-8"?>
<!-- Generator: Adobe Illustrator 24.1.3, SVG Export Plug-In . SVG Version: 6.00 Build 0)  -->
<svg version="1.1" id="Layer_1" xmlns="http://www.w3.org/2000/svg" xmlns:xlink="http://www.w3.org/1999/xlink" x="0px" y="0px"
	 viewBox="0 0 300 100" style="enable-background:new 0 0 300 100;" xml:space="preserve">
<style type="text/css">
	.st0{enable-background:new    ;}
	.st1{fill:#FFFFFF;}
</style>
<g>
	<g class="st0">
		<path class="st1" d="M95.3,51.6c0,2.1-0.8,3.8-2.3,5c-1.6,1.2-3.7,1.8-6.3,1.8c-2.9,0-5.1-0.4-6.7-1.1v-2.7c1,0.4,2.1,0.8,3.3,1
			c1.2,0.2,2.3,0.4,3.5,0.4c1.9,0,3.3-0.4,4.3-1.1c1-0.7,1.4-1.7,1.4-3c0-0.8-0.2-1.5-0.5-2.1c-0.3-0.5-0.9-1-1.7-1.5
			c-0.8-0.5-2-1-3.6-1.5c-2.3-0.8-3.9-1.8-4.9-2.9s-1.5-2.6-1.5-4.3c0-1.9,0.7-3.4,2.1-4.5c1.4-1.1,3.3-1.7,5.6-1.7
			c2.4,0,4.6,0.4,6.7,1.3l-0.9,2.5c-2-0.8-4-1.3-5.9-1.3c-1.5,0-2.7,0.3-3.5,1c-0.8,0.6-1.3,1.5-1.3,2.7c0,0.8,0.2,1.5,0.5,2.1
			s0.8,1,1.6,1.5c0.7,0.4,1.9,0.9,3.4,1.5c2.6,0.9,4.3,1.9,5.3,2.9C94.8,48.5,95.3,49.9,95.3,51.6z"/>
		<path class="st1" d="M100.3,58V33.7h2.8V58H100.3z"/>
		<path class="st1" d="M117.3,58h-2.8V36.2h-7.7v-2.5H125v2.5h-7.7V58z"/>
		<path class="st1" d="M142.2,58h-13.6V33.7h13.6v2.5h-10.7v7.8h10.1v2.5h-10.1v9h10.7V58z"/>
	</g>
	<g class="st0">
		<path class="st1" d="M170.6,51.3c0,2.2-0.8,3.9-2.4,5.2c-1.6,1.3-3.8,1.9-6.6,1.9c-2.6,0-4.9-0.5-6.9-1.5v-4.8
			c1.6,0.7,3,1.2,4.2,1.5s2.2,0.4,3.1,0.4c1.1,0,2-0.2,2.6-0.6c0.6-0.4,0.9-1.1,0.9-1.9c0-0.5-0.1-0.9-0.4-1.3s-0.7-0.7-1.2-1.1
			c-0.5-0.3-1.6-0.9-3.2-1.6c-1.5-0.7-2.6-1.4-3.3-2c-0.7-0.6-1.3-1.4-1.8-2.2c-0.4-0.9-0.7-1.9-0.7-3c0-2.2,0.7-3.8,2.2-5.1
			s3.5-1.8,6.1-1.8c1.3,0,2.5,0.1,3.6,0.4c1.1,0.3,2.4,0.7,3.6,1.3l-1.7,4c-1.3-0.5-2.4-0.9-3.2-1.1s-1.7-0.3-2.5-0.3
			c-1,0-1.7,0.2-2.2,0.7c-0.5,0.5-0.8,1-0.8,1.8c0,0.5,0.1,0.9,0.3,1.2c0.2,0.3,0.5,0.7,1,1c0.5,0.3,1.6,0.9,3.3,1.7
			c2.3,1.1,3.8,2.2,4.7,3.3C170.1,48.4,170.6,49.7,170.6,51.3z"/>
		<path class="st1" d="M189,58h-14V33.7h14v4.2h-8.9v5.3h8.2v4.2h-8.2v6.3h8.9V58z"/>
		<path class="st1" d="M203.3,44.4h9.7V57c-1.6,0.5-3,0.9-4.4,1.1c-1.4,0.2-2.8,0.3-4.2,0.3c-3.7,0-6.5-1.1-8.4-3.2
			c-1.9-2.2-2.9-5.3-2.9-9.3c0-3.9,1.1-7,3.4-9.2c2.2-2.2,5.4-3.3,9.4-3.3c2.5,0,4.9,0.5,7.2,1.5l-1.7,4.1c-1.8-0.9-3.6-1.3-5.5-1.3
			c-2.2,0-4,0.7-5.4,2.2c-1.3,1.5-2,3.5-2,6c0,2.6,0.5,4.7,1.6,6.1c1.1,1.4,2.7,2.1,4.7,2.1c1.1,0,2.2-0.1,3.3-0.3v-5.1h-4.6V44.4z"
			/>
		<path class="st1" d="M238.6,33.7v15.8c0,1.8-0.4,3.4-1.2,4.7c-0.8,1.4-2,2.4-3.5,3.1c-1.5,0.7-3.3,1.1-5.4,1.1
			c-3.1,0-5.6-0.8-7.3-2.4c-1.7-1.6-2.6-3.8-2.6-6.6V33.7h5.1v14.9c0,1.9,0.4,3.3,1.1,4.1c0.8,0.9,2,1.3,3.7,1.3
			c1.7,0,2.9-0.4,3.7-1.3s1.1-2.3,1.1-4.2V33.7H238.6z"/>
		<path class="st1" d="M249.7,48.7V58h-5.2V33.7h7.1c3.3,0,5.8,0.6,7.3,1.8c1.6,1.2,2.4,3,2.4,5.5c0,1.4-0.4,2.7-1.2,3.8
			c-0.8,1.1-1.9,2-3.3,2.6c3.7,5.5,6.1,9,7.2,10.6h-5.7l-5.8-9.3H249.7z M249.7,44.5h1.7c1.6,0,2.8-0.3,3.6-0.8
			c0.8-0.5,1.2-1.4,1.2-2.6c0-1.2-0.4-2-1.2-2.5c-0.8-0.5-2-0.7-3.7-0.7h-1.6V44.5z"/>
		<path class="st1" d="M289.2,45.8c0,4-1,7.1-3,9.3c-2,2.2-4.9,3.2-8.6,3.2c-3.7,0-6.6-1.1-8.6-3.2c-2-2.2-3-5.3-3-9.3s1-7.1,3-9.3
			c2-2.1,4.9-3.2,8.6-3.2c3.7,0,6.6,1.1,8.6,3.2S289.2,41.8,289.2,45.8z M271.4,45.8c0,2.7,0.5,4.8,1.5,6.1c1,1.4,2.6,2.1,4.6,2.1
			c4.1,0,6.2-2.7,6.2-8.2c0-5.5-2-8.2-6.1-8.2c-2.1,0-3.6,0.7-4.6,2.1C271.9,41.1,271.4,43.1,271.4,45.8z"/>
	</g>
	<g>
		<path class="st1" d="M41.5,49.1c-2.1,0-3.8,1.7-3.8,3.8c0,1.5,0.9,2.8,2.1,3.4v4.9c0,0.9,0.8,1.7,1.7,1.7s1.7-0.7,1.7-1.7v-4.9
			c1.3-0.6,2.1-1.9,2.1-3.4C45.3,50.8,43.6,49.1,41.5,49.1z"/>
		<path class="st1" d="M64.6,15.8l-22.5-3.3c-0.7-0.1-1.4-0.1-2.2,0l-22.5,3.3c-3.8,0.6-6.6,3.9-6.6,7.9v35.8c0,2.3,1,4.4,2.6,5.9
			l22.5,20.3c2.9,2.6,7.2,2.6,10.1,0l22.5-20.3c1.7-1.5,2.6-3.7,2.6-5.9V23.7C71.2,19.7,68.4,16.4,64.6,15.8z M29.5,34.3
			c0-6.5,5.3-11.9,11.9-11.9s11.9,5.3,11.9,11.9v6.9h-4.6v-6.9c0-4-3.3-7.3-7.3-7.3s-7.3,3.3-7.3,7.3v6.9h-4.6
			C29.5,41.2,29.5,34.3,29.5,34.3z M56.2,67.6c0,1.2-1,2.1-2.3,2.1H29.2c-1.3,0-2.3-1-2.3-2.1V45.1c0-1.2,1-2.1,2.3-2.1h24.6
			c1.3,0,2.3,1,2.3,2.1v22.5H56.2z"/>
	</g>
</g>
</svg>
